<svg width="27" height="28" viewBox="0 0 27 28" fill="none" xmlns="http://www.w3.org/2000/svg">
<path d="M18.9788 15.2267C19.9571 15.2267 20.8179 14.6591 21.2614 13.8009L25.9311 4.81716C26.0411 4.60735 26.0975 4.37071 26.0947 4.13066C26.092 3.89061 26.0303 3.65547 25.9157 3.44851C25.801 3.24155 25.6374 3.06995 25.4411 2.95068C25.2448 2.83141 25.0225 2.7686 24.7963 2.76849H5.49145L4.26533 0H0V2.76849H2.60877L7.30454 13.2749L5.54363 16.6524C4.59143 18.5073 5.84363 20.7636 7.8263 20.7636H23.4789V17.9952H7.8263L9.26112 15.2267H18.9788ZM6.73061 5.53697H22.5789L18.9788 12.4582H9.822L6.73061 5.53697ZM7.8263 22.1479C6.39147 22.1479 5.23057 23.3937 5.23057 24.9164C5.23057 26.439 6.39147 27.6849 7.8263 27.6849C9.26112 27.6849 10.4351 26.439 10.4351 24.9164C10.4351 23.3937 9.26112 22.1479 7.8263 22.1479ZM20.8701 22.1479C19.4353 22.1479 18.2744 23.3937 18.2744 24.9164C18.2744 26.439 19.4353 27.6849 20.8701 27.6849C22.3049 27.6849 23.4789 26.439 23.4789 24.9164C23.4789 23.3937 22.3049 22.1479 20.8701 22.1479Z" fill="white"/>
</svg>
