<svg width="28" height="29" viewBox="0 0 28 29" fill="none" xmlns="http://www.w3.org/2000/svg">
<path d="M14.2344 11.5781H16.8906V7.59375H20.875V4.9375H16.8906V0.953125H14.2344V4.9375H10.25V7.59375H14.2344M8.92188 23.5312C7.46094 23.5312 6.26562 24.7266 6.26562 26.1875C6.26562 27.6484 7.46094 28.8438 8.92188 28.8438C10.3828 28.8438 11.5781 27.6484 11.5781 26.1875C11.5781 24.7266 10.3828 23.5312 8.92188 23.5312ZM22.2031 23.5312C20.7422 23.5312 19.5469 24.7266 19.5469 26.1875C19.5469 27.6484 20.7422 28.8438 22.2031 28.8438C23.6641 28.8438 24.8594 27.6484 24.8594 26.1875C24.8594 24.7266 23.6641 23.5312 22.2031 23.5312ZM9.1875 19.2812V19.1484L10.3828 16.8906H20.2109C21.1406 16.8906 22.0703 16.3594 22.4688 15.5625L27.6484 6.26562L25.3906 4.9375L20.2109 14.2344H10.9141L5.33594 2.28125H0.953125V4.9375H3.60938L8.39062 15.0313L6.53125 18.2188C6.39844 18.6172 6.26562 19.0156 6.26562 19.5469C6.26562 21.0078 7.46094 22.2031 8.92188 22.2031H24.8594V19.5469H9.45312C9.32031 19.5469 9.1875 19.4141 9.1875 19.2812Z" fill="#1D7000"/>
</svg>
