<svg width="37" height="38" viewBox="0 0 37 38" fill="none" xmlns="http://www.w3.org/2000/svg">
<path d="M0.861087 12.8898V12.8889V4.74076C0.861087 3.82108 1.18007 3.05188 1.8392 2.39276C2.49829 1.73366 3.26651 1.41558 4.18425 1.41669H4.18516H12.3333C13.253 1.41669 14.0222 1.73567 14.6813 2.3948C15.3404 3.05389 15.6585 3.82212 15.6574 4.73985V4.74076V12.8889C15.6574 13.8086 15.3384 14.5778 14.6793 15.2369C14.0202 15.896 13.252 16.2141 12.3342 16.213H12.3333H4.18516C3.26548 16.213 2.49628 15.894 1.83716 15.2349C1.17806 14.5758 0.859973 13.8076 0.861087 12.8898ZM0.861087 33.2602V33.2593V25.1111C0.861087 24.1915 1.18007 23.4223 1.8392 22.7631C2.49829 22.104 3.26651 21.7859 4.18425 21.7871H4.18516H12.3333C13.253 21.7871 14.0222 22.106 14.6813 22.7652C15.3404 23.4243 15.6585 24.1925 15.6574 25.1102V25.1111V33.2593C15.6574 34.179 15.3384 34.9482 14.6793 35.6073C14.0202 36.2664 13.252 36.5845 12.3342 36.5834H12.3333H4.18516C3.26547 36.5834 2.49628 36.2644 1.83716 35.6053C1.17806 34.9462 0.859973 34.1779 0.861087 33.2602ZM21.2315 12.8898V12.8889V4.74076C21.2315 3.82108 21.5504 3.05189 22.2096 2.39276C22.8687 1.73366 23.6369 1.41558 24.5546 1.41669H24.5555H32.7037C33.6234 1.41669 34.3926 1.73567 35.0517 2.3948C35.7108 3.05389 36.0289 3.82211 36.0278 4.73985V4.74076V12.8889C36.0278 13.8086 35.7088 14.5778 35.0496 15.2369C34.3906 15.896 33.6223 16.2141 32.7046 16.213H32.7037H24.5555C23.6358 16.213 22.8667 15.894 22.2075 15.2349C21.5484 14.5758 21.2303 13.8076 21.2315 12.8898ZM21.2315 33.2602V33.2593V25.1111C21.2315 24.1915 21.5504 23.4223 22.2096 22.7631C22.8687 22.104 23.6369 21.7859 24.5546 21.7871H24.5555H32.7037C33.6234 21.7871 34.3926 22.106 35.0517 22.7652C35.7108 23.4243 36.0289 24.1925 36.0278 25.1102V25.1111V33.2593C36.0278 34.179 35.7088 34.9482 35.0496 35.6073C34.3906 36.2664 33.6223 36.5845 32.7046 36.5834H32.7037H24.5555C23.6358 36.5834 22.8667 36.2644 22.2075 35.6053C21.5484 34.9462 21.2303 34.1779 21.2315 33.2602Z" fill="white" stroke="black" stroke-width="1.5"/>
</svg>
