<svg width="33" height="33" viewBox="0 0 33 33" fill="none" xmlns="http://www.w3.org/2000/svg">
<path d="M19.8774 4.95655C19.9035 4.85833 19.9488 4.76624 20.0106 4.68554C20.0724 4.60484 20.1495 4.53711 20.2375 4.48623C20.3255 4.43535 20.4227 4.40231 20.5235 4.38901C20.6242 4.3757 20.7266 4.38239 20.8248 4.4087C22.6929 4.89599 24.3973 5.8725 25.7625 7.23765C27.1276 8.60279 28.1041 10.3072 28.5914 12.1753C28.6177 12.2735 28.6244 12.3759 28.6111 12.4767C28.5978 12.5774 28.5648 12.6746 28.5139 12.7626C28.463 12.8506 28.3953 12.9277 28.3146 12.9895C28.2339 13.0513 28.1418 13.0966 28.0436 13.1228C27.9784 13.1401 27.9112 13.1488 27.8438 13.1485C27.6734 13.1486 27.5077 13.0925 27.3725 12.9887C27.2373 12.885 27.1401 12.7395 27.0961 12.5749C26.6778 10.9703 25.8391 9.50621 24.6665 8.33363C23.4939 7.16105 22.0298 6.32236 20.4252 5.90401C20.327 5.87782 20.2349 5.83253 20.1542 5.77073C20.0735 5.70893 20.0058 5.63183 19.9549 5.54384C19.904 5.45584 19.871 5.35868 19.8577 5.25791C19.8444 5.15714 19.8511 5.05473 19.8774 4.95655ZM19.394 10.029C21.2695 10.5292 22.471 11.7306 22.9711 13.6062C23.0151 13.7708 23.1123 13.9163 23.2475 14.02C23.3827 14.1237 23.5484 14.1799 23.7188 14.1798C23.7862 14.18 23.8534 14.1714 23.9186 14.154C24.0168 14.1278 24.1089 14.0825 24.1896 14.0207C24.2703 13.9589 24.338 13.8818 24.3889 13.7938C24.4398 13.7058 24.4728 13.6087 24.4861 13.5079C24.4994 13.4071 24.4927 13.3047 24.4664 13.2065C23.8219 10.7947 22.2054 9.17823 19.7936 8.53369C19.6954 8.50746 19.593 8.50081 19.4922 8.51415C19.3915 8.52748 19.2944 8.56052 19.2064 8.6114C19.0287 8.71414 18.8991 8.88326 18.8461 9.08155C18.7931 9.27984 18.8211 9.49106 18.9238 9.66874C19.0265 9.84642 19.1957 9.97602 19.394 10.029ZM29.6343 22.5329C29.4134 24.218 28.5865 25.765 27.308 26.8848C26.0295 28.0046 24.387 28.6204 22.6875 28.6173C12.5942 28.6173 4.38283 20.406 4.38283 10.3126C4.37957 8.61367 4.9949 6.97166 6.11387 5.69327C7.23284 4.41488 8.77893 3.58756 10.4633 3.36584C10.8511 3.31872 11.2436 3.39867 11.5821 3.59369C11.9205 3.78871 12.1865 4.08826 12.3402 4.44737L15.0601 10.5189C15.1802 10.7937 15.2299 11.0942 15.2047 11.3931C15.1795 11.692 15.0802 11.9799 14.9158 12.2307C14.8992 12.2563 14.8811 12.2808 14.8616 12.3042L12.1456 15.5346C12.1291 15.5681 12.1205 15.6049 12.1205 15.6422C12.1205 15.6796 12.1291 15.7164 12.1456 15.7499C13.133 17.7711 15.2522 19.8749 17.3018 20.861C17.336 20.8766 17.3734 20.884 17.411 20.8827C17.4486 20.8813 17.4853 20.8713 17.5184 20.8533L20.7011 18.1462C20.7238 18.1265 20.7479 18.1084 20.7733 18.0921C21.023 17.9256 21.3104 17.824 21.6093 17.7965C21.9082 17.7691 22.2092 17.8166 22.4851 17.9348L28.5747 20.6638C28.929 20.8208 29.2233 21.0877 29.4142 21.4251C29.605 21.7624 29.6822 22.1522 29.6343 22.5368V22.5329ZM28.1016 22.3421C28.1059 22.2882 28.0932 22.2343 28.0652 22.1881C28.0372 22.1418 27.9953 22.1055 27.9456 22.0843L21.8548 19.3554C21.8215 19.3425 21.7858 19.337 21.7502 19.3393C21.7146 19.3415 21.6799 19.3514 21.6485 19.3683L18.4671 22.0753C18.4439 22.0946 18.4194 22.1127 18.3949 22.1294C18.1354 22.3025 17.8355 22.4053 17.5244 22.4279C17.2133 22.4505 16.9017 22.3921 16.6199 22.2583C14.2532 21.1149 11.8942 18.7779 10.7508 16.4331C10.6163 16.1529 10.5564 15.8428 10.577 15.5327C10.5976 15.2226 10.6978 14.9231 10.8681 14.6632C10.8847 14.6373 10.9032 14.6128 10.9235 14.5897L13.6383 11.3593C13.6538 11.3256 13.6618 11.2888 13.6618 11.2517C13.6618 11.2145 13.6538 11.1778 13.6383 11.144L10.9235 5.06741C10.9056 5.01864 10.8734 4.97642 10.8311 4.94628C10.7887 4.91615 10.7383 4.89951 10.6863 4.89854H10.6567C9.34564 5.07294 8.14289 5.71857 7.27303 6.71486C6.40316 7.71116 5.92567 8.99001 5.9297 10.3126C5.9297 19.5526 13.4475 27.0704 22.6875 27.0704C24.0103 27.0744 25.2893 26.5967 26.2856 25.7266C27.282 24.8565 27.9275 23.6534 28.1016 22.3421Z" fill="white"/>
</svg>
