<svg width="182" height="182" viewBox="0 0 182 182" fill="none" xmlns="http://www.w3.org/2000/svg">
<g filter="url(#filter0_d_1_205)">
<circle cx="91" cy="91" r="61" fill="white"/>
</g>
<path d="M102.938 91.5C102.645 91.5 102.33 91.455 102.038 91.365C101.478 91.176 100.992 90.8157 100.649 90.3351C100.306 89.8545 100.122 89.2781 100.125 88.6875V84.7275C96.975 84.435 94.5 81.78 94.5 78.5625V70.6875C94.5 67.2675 97.2676 64.5 100.688 64.5H115.313C118.733 64.5 121.5 67.2675 121.5 70.6875V78.5625C121.5 81.9825 118.733 84.75 115.313 84.75H109.418L105.188 90.375C104.648 91.095 103.815 91.5 102.938 91.5ZM84.3751 97.125C81.8407 97.1191 79.4119 96.1097 77.6199 94.3176C75.8279 92.5256 74.8185 90.0968 74.8126 87.5625C74.8185 85.0282 75.8279 82.5994 77.6199 80.8074C79.4119 79.0153 81.8407 78.0059 84.3751 78C86.9094 78.0059 89.3382 79.0153 91.1302 80.8074C92.9222 82.5994 93.9316 85.0282 93.9375 87.5625C93.9316 90.0968 92.9222 92.5256 91.1302 94.3176C89.3382 96.1097 86.9094 97.1191 84.3751 97.125ZM70.8098 113.82C73.7573 116.925 78.3248 118.5 84.3773 118.5C90.4298 118.5 94.9973 116.925 97.9448 113.82C101.369 110.197 101.259 105.826 101.252 105.531V105.517C101.252 102.75 99.0023 100.5 96.2348 100.5H72.5198C69.7523 100.5 67.5023 102.75 67.5023 105.428V105.457C67.4933 105.884 67.4078 110.22 70.8098 113.82Z" fill="black"/>
<defs>
<filter id="filter0_d_1_205" x="0" y="0" width="182" height="182" filterUnits="userSpaceOnUse" color-interpolation-filters="sRGB">
<feFlood flood-opacity="0" result="BackgroundImageFix"/>
<feColorMatrix in="SourceAlpha" type="matrix" values="0 0 0 0 0 0 0 0 0 0 0 0 0 0 0 0 0 0 127 0" result="hardAlpha"/>
<feOffset/>
<feGaussianBlur stdDeviation="15"/>
<feComposite in2="hardAlpha" operator="out"/>
<feColorMatrix type="matrix" values="0 0 0 0 0 0 0 0 0 0 0 0 0 0 0 0 0 0 0.25 0"/>
<feBlend mode="normal" in2="BackgroundImageFix" result="effect1_dropShadow_1_205"/>
<feBlend mode="normal" in="SourceGraphic" in2="effect1_dropShadow_1_205" result="shape"/>
</filter>
</defs>
</svg>
