<svg width="25" height="38" viewBox="0 0 25 38" fill="none" xmlns="http://www.w3.org/2000/svg">
<path d="M7.875 22.625H2V8.375L11.5 1.25L21 8.375V22.625H15.125V15.0375C15.125 14.1538 14.4087 13.4375 13.525 13.4375H9.475C8.59134 13.4375 7.875 14.1538 7.875 15.0375V22.625Z" fill="white" stroke="#2E0052" stroke-width="2"/>
<path d="M4.87793 32.2734V33.1479H1.48096V32.2734H4.87793ZM1.75342 29.6016V36H0.650391V29.6016H1.75342ZM5.72607 29.6016V36H4.62744V29.6016H5.72607ZM6.73242 33.6753V33.5742C6.73242 33.2314 6.78223 32.9136 6.88184 32.6206C6.98145 32.3247 7.125 32.0684 7.3125 31.8516C7.50293 31.6318 7.73438 31.4619 8.00684 31.3418C8.28223 31.2188 8.59277 31.1572 8.93848 31.1572C9.28711 31.1572 9.59766 31.2188 9.87012 31.3418C10.1455 31.4619 10.3784 31.6318 10.5688 31.8516C10.7593 32.0684 10.9043 32.3247 11.0039 32.6206C11.1035 32.9136 11.1533 33.2314 11.1533 33.5742V33.6753C11.1533 34.0181 11.1035 34.3359 11.0039 34.6289C10.9043 34.9219 10.7593 35.1782 10.5688 35.3979C10.3784 35.6147 10.147 35.7847 9.87451 35.9077C9.60205 36.0278 9.29297 36.0879 8.94727 36.0879C8.59863 36.0879 8.28662 36.0278 8.01123 35.9077C7.73877 35.7847 7.50732 35.6147 7.31689 35.3979C7.12646 35.1782 6.98145 34.9219 6.88184 34.6289C6.78223 34.3359 6.73242 34.0181 6.73242 33.6753ZM7.7915 33.5742V33.6753C7.7915 33.8892 7.81348 34.0913 7.85742 34.2817C7.90137 34.4722 7.97021 34.6392 8.06396 34.7827C8.15771 34.9263 8.27783 35.0391 8.42432 35.1211C8.5708 35.2031 8.74512 35.2441 8.94727 35.2441C9.14355 35.2441 9.31348 35.2031 9.45703 35.1211C9.60352 35.0391 9.72363 34.9263 9.81738 34.7827C9.91113 34.6392 9.97998 34.4722 10.0239 34.2817C10.0708 34.0913 10.0942 33.8892 10.0942 33.6753V33.5742C10.0942 33.3633 10.0708 33.1641 10.0239 32.9766C9.97998 32.7861 9.90967 32.6177 9.81299 32.4712C9.71924 32.3247 9.59912 32.2104 9.45264 32.1284C9.30908 32.0435 9.1377 32.001 8.93848 32.001C8.73926 32.001 8.56641 32.0435 8.41992 32.1284C8.27637 32.2104 8.15771 32.3247 8.06396 32.4712C7.97021 32.6177 7.90137 32.7861 7.85742 32.9766C7.81348 33.1641 7.7915 33.3633 7.7915 33.5742ZM13.1001 32.2119V36H12.041V31.2451H13.0386L13.1001 32.2119ZM12.9287 33.4468L12.5684 33.4424C12.5684 33.1143 12.6094 32.811 12.6914 32.5327C12.7734 32.2544 12.8936 32.0127 13.0518 31.8076C13.21 31.5996 13.4062 31.4399 13.6406 31.3286C13.8779 31.2144 14.1519 31.1572 14.4624 31.1572C14.6792 31.1572 14.877 31.1895 15.0557 31.2539C15.2373 31.3154 15.394 31.4136 15.5259 31.5483C15.6606 31.6831 15.7632 31.856 15.8335 32.0669C15.9067 32.2778 15.9434 32.5327 15.9434 32.8315V36H14.8843V32.9238C14.8843 32.6924 14.8491 32.5107 14.7788 32.3789C14.7114 32.2471 14.6133 32.1533 14.4844 32.0977C14.3584 32.0391 14.2075 32.0098 14.0317 32.0098C13.8325 32.0098 13.6626 32.0479 13.522 32.124C13.3843 32.2002 13.2715 32.3042 13.1836 32.436C13.0957 32.5679 13.0312 32.7202 12.9902 32.8931C12.9492 33.0659 12.9287 33.2505 12.9287 33.4468ZM15.8774 33.1655L15.3809 33.2754C15.3809 32.9883 15.4204 32.7173 15.4995 32.4624C15.5815 32.2046 15.7002 31.979 15.8555 31.7856C16.0137 31.5894 16.2085 31.4355 16.4399 31.3242C16.6714 31.2129 16.9365 31.1572 17.2354 31.1572C17.4785 31.1572 17.6953 31.1909 17.8857 31.2583C18.0791 31.3228 18.2432 31.4253 18.3779 31.5659C18.5127 31.7065 18.6152 31.8896 18.6855 32.1152C18.7559 32.3379 18.791 32.6074 18.791 32.9238V36H17.7275V32.9194C17.7275 32.6792 17.6924 32.4932 17.6221 32.3613C17.5547 32.2295 17.458 32.1387 17.332 32.0889C17.2061 32.0361 17.0552 32.0098 16.8794 32.0098C16.7153 32.0098 16.5703 32.0405 16.4443 32.1021C16.3213 32.1606 16.2173 32.2441 16.1323 32.3525C16.0474 32.458 15.9829 32.5796 15.939 32.7173C15.8979 32.855 15.8774 33.0044 15.8774 33.1655ZM21.9771 36.0879C21.6255 36.0879 21.3076 36.0308 21.0234 35.9165C20.7422 35.7993 20.502 35.6367 20.3027 35.4287C20.1064 35.2207 19.9556 34.9761 19.8501 34.6948C19.7446 34.4136 19.6919 34.1104 19.6919 33.7852V33.6094C19.6919 33.2373 19.7461 32.9004 19.8545 32.5986C19.9629 32.2969 20.1138 32.0391 20.3071 31.8252C20.5005 31.6084 20.729 31.4429 20.9927 31.3286C21.2563 31.2144 21.542 31.1572 21.8496 31.1572C22.1895 31.1572 22.4868 31.2144 22.7417 31.3286C22.9966 31.4429 23.2075 31.604 23.3745 31.812C23.5444 32.0171 23.6704 32.2617 23.7524 32.5459C23.8374 32.8301 23.8799 33.1436 23.8799 33.4863V33.939H20.2061V33.1787H22.834V33.0952C22.8281 32.9048 22.79 32.7261 22.7197 32.5591C22.6523 32.3921 22.5483 32.2573 22.4077 32.1548C22.2671 32.0522 22.0796 32.001 21.8452 32.001C21.6694 32.001 21.5127 32.0391 21.375 32.1152C21.2402 32.1885 21.1274 32.2954 21.0366 32.436C20.9458 32.5767 20.8755 32.7466 20.8257 32.9458C20.7788 33.1421 20.7554 33.3633 20.7554 33.6094V33.7852C20.7554 33.9932 20.7832 34.1865 20.8389 34.3652C20.8975 34.541 20.9824 34.6948 21.0938 34.8267C21.2051 34.9585 21.3398 35.0625 21.498 35.1387C21.6562 35.2119 21.8364 35.2485 22.0386 35.2485C22.2935 35.2485 22.5205 35.1973 22.7197 35.0947C22.9189 34.9922 23.0918 34.8472 23.2383 34.6597L23.7964 35.2002C23.6938 35.3496 23.5605 35.4932 23.3965 35.6309C23.2324 35.7656 23.0317 35.8755 22.7944 35.9604C22.5601 36.0454 22.2876 36.0879 21.9771 36.0879Z" fill="black"/>
</svg>
