<svg width="90" height="90" viewBox="0 0 90 90" fill="none" xmlns="http://www.w3.org/2000/svg">
<path d="M36.975 80.3625L33.75 82.5L22.5 75L11.25 82.5V11.25H78.75V38.25C75.375 36.825 71.25 37.5 68.4 40.3125L36.975 71.7375V80.3625ZM44.475 74.85L67.5 51.8625L75.1125 59.5125L52.125 82.5H44.475V74.85ZM76.4625 45.5625C76.3794 45.4673 76.2772 45.3906 76.1625 45.3375C75.8156 45.0946 75.3963 44.9772 74.9737 45.0044C74.5511 45.0317 74.1503 45.2021 73.8375 45.4875L73.7625 45.5625L70.0875 49.2375L77.7375 56.8875L81.4125 53.2125C82.1625 52.5 82.1625 51.2625 81.4125 50.5125L76.4625 45.5625Z" fill="#828282"/>
</svg>
