<svg width="71" height="72" viewBox="0 0 71 72" fill="none" xmlns="http://www.w3.org/2000/svg">
<path d="M25.975 69.3625L22.75 71.5L11.5 64L0.25 71.5V0.25H67.75V27.25C64.375 25.825 60.25 26.5 57.4 29.3125L25.975 60.7375V69.3625ZM33.475 63.85L56.5 40.8625L64.1125 48.5125L41.125 71.5H33.475V63.85ZM65.4625 34.5625C65.3794 34.4673 65.2772 34.3906 65.1625 34.3375C64.8156 34.0946 64.3963 33.9772 63.9737 34.0044C63.5511 34.0317 63.1503 34.2021 62.8375 34.4875L62.7625 34.5625L59.0875 38.2375L66.7375 45.8875L70.4125 42.2125C71.1625 41.5 71.1625 40.2625 70.4125 39.5125L65.4625 34.5625Z" fill="#828282"/>
</svg>
