<svg width="29" height="37" viewBox="0 0 29 37" fill="none" xmlns="http://www.w3.org/2000/svg">
<path d="M1.82812 28.6016V35H0.725098V28.6016H1.82812ZM4.14404 31.2603V35H3.08496V30.2451H4.08252L4.14404 31.2603ZM3.95508 32.4468L3.6123 32.4424C3.61523 32.1055 3.66211 31.7964 3.75293 31.5151C3.84668 31.2339 3.97559 30.9922 4.13965 30.79C4.30664 30.5879 4.50586 30.4326 4.7373 30.3242C4.96875 30.2129 5.22656 30.1572 5.51074 30.1572C5.73926 30.1572 5.9458 30.1895 6.13037 30.2539C6.31787 30.3154 6.47754 30.4165 6.60938 30.5571C6.74414 30.6978 6.84668 30.8809 6.91699 31.1064C6.9873 31.3291 7.02246 31.603 7.02246 31.9282V35H5.95898V31.9238C5.95898 31.6953 5.92529 31.5151 5.85791 31.3833C5.79346 31.2485 5.69824 31.1533 5.57227 31.0977C5.44922 31.0391 5.29541 31.0098 5.11084 31.0098C4.9292 31.0098 4.7666 31.0479 4.62305 31.124C4.47949 31.2002 4.35791 31.3042 4.2583 31.436C4.16162 31.5679 4.08691 31.7202 4.03418 31.8931C3.98145 32.0659 3.95508 32.2505 3.95508 32.4468ZM9.65039 34.1606L10.8149 30.2451H11.9136L10.2612 35H9.57568L9.65039 34.1606ZM8.7583 30.2451L9.94482 34.1782L10.002 35H9.31641L7.65527 30.2451H8.7583ZM12.2959 32.6753V32.5742C12.2959 32.2314 12.3457 31.9136 12.4453 31.6206C12.5449 31.3247 12.6885 31.0684 12.876 30.8516C13.0664 30.6318 13.2979 30.4619 13.5703 30.3418C13.8457 30.2188 14.1562 30.1572 14.502 30.1572C14.8506 30.1572 15.1611 30.2188 15.4336 30.3418C15.709 30.4619 15.9419 30.6318 16.1323 30.8516C16.3228 31.0684 16.4678 31.3247 16.5674 31.6206C16.667 31.9136 16.7168 32.2314 16.7168 32.5742V32.6753C16.7168 33.0181 16.667 33.3359 16.5674 33.6289C16.4678 33.9219 16.3228 34.1782 16.1323 34.3979C15.9419 34.6147 15.7104 34.7847 15.438 34.9077C15.1655 35.0278 14.8564 35.0879 14.5107 35.0879C14.1621 35.0879 13.8501 35.0278 13.5747 34.9077C13.3022 34.7847 13.0708 34.6147 12.8804 34.3979C12.6899 34.1782 12.5449 33.9219 12.4453 33.6289C12.3457 33.3359 12.2959 33.0181 12.2959 32.6753ZM13.355 32.5742V32.6753C13.355 32.8892 13.377 33.0913 13.4209 33.2817C13.4648 33.4722 13.5337 33.6392 13.6274 33.7827C13.7212 33.9263 13.8413 34.0391 13.9878 34.1211C14.1343 34.2031 14.3086 34.2441 14.5107 34.2441C14.707 34.2441 14.877 34.2031 15.0205 34.1211C15.167 34.0391 15.2871 33.9263 15.3809 33.7827C15.4746 33.6392 15.5435 33.4722 15.5874 33.2817C15.6343 33.0913 15.6577 32.8892 15.6577 32.6753V32.5742C15.6577 32.3633 15.6343 32.1641 15.5874 31.9766C15.5435 31.7861 15.4731 31.6177 15.3765 31.4712C15.2827 31.3247 15.1626 31.2104 15.0161 31.1284C14.8726 31.0435 14.7012 31.001 14.502 31.001C14.3027 31.001 14.1299 31.0435 13.9834 31.1284C13.8398 31.2104 13.7212 31.3247 13.6274 31.4712C13.5337 31.6177 13.4648 31.7861 13.4209 31.9766C13.377 32.1641 13.355 32.3633 13.355 32.5742ZM18.7383 30.2451V35H17.6748V30.2451H18.7383ZM17.6045 28.9971C17.6045 28.8359 17.6572 28.7026 17.7627 28.5972C17.8711 28.4888 18.0205 28.4346 18.2109 28.4346C18.3984 28.4346 18.5464 28.4888 18.6548 28.5972C18.7632 28.7026 18.8174 28.8359 18.8174 28.9971C18.8174 29.1553 18.7632 29.2871 18.6548 29.3926C18.5464 29.498 18.3984 29.5508 18.2109 29.5508C18.0205 29.5508 17.8711 29.498 17.7627 29.3926C17.6572 29.2871 17.6045 29.1553 17.6045 28.9971ZM21.8408 34.2441C22.0137 34.2441 22.1689 34.2104 22.3066 34.1431C22.4473 34.0728 22.5601 33.9761 22.645 33.853C22.7329 33.73 22.7812 33.5879 22.79 33.4268H23.7876C23.7817 33.7344 23.6909 34.0142 23.5151 34.2661C23.3394 34.5181 23.1064 34.7188 22.8164 34.8682C22.5264 35.0146 22.2056 35.0879 21.854 35.0879C21.4907 35.0879 21.1743 35.0264 20.9048 34.9033C20.6353 34.7773 20.4111 34.6045 20.2324 34.3848C20.0537 34.165 19.9189 33.9116 19.8281 33.6245C19.7402 33.3374 19.6963 33.0298 19.6963 32.7017V32.5479C19.6963 32.2197 19.7402 31.9121 19.8281 31.625C19.9189 31.335 20.0537 31.0801 20.2324 30.8604C20.4111 30.6406 20.6353 30.4692 20.9048 30.3462C21.1743 30.2202 21.4893 30.1572 21.8496 30.1572C22.2305 30.1572 22.5645 30.2334 22.8516 30.3857C23.1387 30.5352 23.3643 30.7446 23.5283 31.0142C23.6953 31.2808 23.7817 31.5913 23.7876 31.9458H22.79C22.7812 31.77 22.7373 31.6118 22.6582 31.4712C22.582 31.3276 22.4736 31.2134 22.333 31.1284C22.1953 31.0435 22.0298 31.001 21.8364 31.001C21.6226 31.001 21.4453 31.0449 21.3047 31.1328C21.1641 31.2178 21.0542 31.335 20.9751 31.4844C20.896 31.6309 20.8389 31.7964 20.8037 31.981C20.7715 32.1626 20.7554 32.3516 20.7554 32.5479V32.7017C20.7554 32.8979 20.7715 33.0884 20.8037 33.2729C20.8359 33.4575 20.8916 33.623 20.9707 33.7695C21.0527 33.9131 21.1641 34.0288 21.3047 34.1167C21.4453 34.2017 21.624 34.2441 21.8408 34.2441ZM26.6968 35.0879C26.3452 35.0879 26.0273 35.0308 25.7432 34.9165C25.4619 34.7993 25.2217 34.6367 25.0225 34.4287C24.8262 34.2207 24.6753 33.9761 24.5698 33.6948C24.4644 33.4136 24.4116 33.1104 24.4116 32.7852V32.6094C24.4116 32.2373 24.4658 31.9004 24.5742 31.5986C24.6826 31.2969 24.8335 31.0391 25.0269 30.8252C25.2202 30.6084 25.4487 30.4429 25.7124 30.3286C25.9761 30.2144 26.2617 30.1572 26.5693 30.1572C26.9092 30.1572 27.2065 30.2144 27.4614 30.3286C27.7163 30.4429 27.9272 30.604 28.0942 30.812C28.2642 31.0171 28.3901 31.2617 28.4722 31.5459C28.5571 31.8301 28.5996 32.1436 28.5996 32.4863V32.939H24.9258V32.1787H27.5537V32.0952C27.5479 31.9048 27.5098 31.7261 27.4395 31.5591C27.3721 31.3921 27.2681 31.2573 27.1274 31.1548C26.9868 31.0522 26.7993 31.001 26.5649 31.001C26.3892 31.001 26.2324 31.0391 26.0947 31.1152C25.96 31.1885 25.8472 31.2954 25.7563 31.436C25.6655 31.5767 25.5952 31.7466 25.5454 31.9458C25.4985 32.1421 25.4751 32.3633 25.4751 32.6094V32.7852C25.4751 32.9932 25.5029 33.1865 25.5586 33.3652C25.6172 33.541 25.7021 33.6948 25.8135 33.8267C25.9248 33.9585 26.0596 34.0625 26.2178 34.1387C26.376 34.2119 26.5562 34.2485 26.7583 34.2485C27.0132 34.2485 27.2402 34.1973 27.4395 34.0947C27.6387 33.9922 27.8115 33.8472 27.958 33.6597L28.5161 34.2002C28.4136 34.3496 28.2803 34.4932 28.1162 34.6309C27.9521 34.7656 27.7515 34.8755 27.5142 34.9604C27.2798 35.0454 27.0073 35.0879 26.6968 35.0879Z" fill="black"/>
<path d="M12.2708 22.3229L11.375 22.9167L8.25 20.8333L5.125 22.9167V3.125H23.875V10.625C22.9375 10.2292 21.7917 10.4167 21 11.1979L12.2708 19.9271V22.3229ZM14.3542 20.7917L20.75 14.4062L22.8646 16.5312L16.4792 22.9167H14.3542V20.7917ZM23.2396 12.6562C23.2165 12.6298 23.1881 12.6085 23.1562 12.5937C23.0599 12.5263 22.9434 12.4937 22.826 12.5012C22.7086 12.5088 22.5973 12.5561 22.5104 12.6354L22.4896 12.6562L21.4687 13.6771L23.5937 15.8021L24.6146 14.7812C24.8229 14.5833 24.8229 14.2396 24.6146 14.0312L23.2396 12.6562Z" fill="#2E0052"/>
</svg>
