<svg width="25" height="25" viewBox="0 0 25 25" fill="none" xmlns="http://www.w3.org/2000/svg">
<path d="M10.2708 22.3229L9.375 22.9167L6.25 20.8333L3.125 22.9167V3.125H21.875V10.625C20.9375 10.2292 19.7917 10.4167 19 11.1979L10.2708 19.9271V22.3229ZM12.3542 20.7917L18.75 14.4062L20.8646 16.5312L14.4792 22.9167H12.3542V20.7917ZM21.2396 12.6562C21.2165 12.6298 21.1881 12.6085 21.1562 12.5938C21.0599 12.5263 20.9434 12.4937 20.826 12.5012C20.7086 12.5088 20.5973 12.5561 20.5104 12.6354L20.4896 12.6562L19.4688 13.6771L21.5937 15.8021L22.6146 14.7812C22.8229 14.5833 22.8229 14.2396 22.6146 14.0312L21.2396 12.6562Z" fill="#2E0052"/>
</svg>
