<svg width="25" height="34" viewBox="0 0 25 34" fill="none" xmlns="http://www.w3.org/2000/svg">
<path d="M6.6582 31.1255V32H3.4458V31.1255H6.6582ZM3.75342 25.6016V32H2.65039V25.6016H3.75342ZM7.20312 29.6753V29.5742C7.20312 29.2314 7.25293 28.9136 7.35254 28.6206C7.45215 28.3247 7.5957 28.0684 7.7832 27.8516C7.97363 27.6318 8.20508 27.4619 8.47754 27.3418C8.75293 27.2188 9.06348 27.1572 9.40918 27.1572C9.75781 27.1572 10.0684 27.2188 10.3408 27.3418C10.6162 27.4619 10.8491 27.6318 11.0396 27.8516C11.23 28.0684 11.375 28.3247 11.4746 28.6206C11.5742 28.9136 11.624 29.2314 11.624 29.5742V29.6753C11.624 30.0181 11.5742 30.3359 11.4746 30.6289C11.375 30.9219 11.23 31.1782 11.0396 31.3979C10.8491 31.6147 10.6177 31.7847 10.3452 31.9077C10.0728 32.0278 9.76367 32.0879 9.41797 32.0879C9.06934 32.0879 8.75732 32.0278 8.48193 31.9077C8.20947 31.7847 7.97803 31.6147 7.7876 31.3979C7.59717 31.1782 7.45215 30.9219 7.35254 30.6289C7.25293 30.3359 7.20312 30.0181 7.20312 29.6753ZM8.26221 29.5742V29.6753C8.26221 29.8892 8.28418 30.0913 8.32812 30.2817C8.37207 30.4722 8.44092 30.6392 8.53467 30.7827C8.62842 30.9263 8.74854 31.0391 8.89502 31.1211C9.0415 31.2031 9.21582 31.2441 9.41797 31.2441C9.61426 31.2441 9.78418 31.2031 9.92773 31.1211C10.0742 31.0391 10.1943 30.9263 10.2881 30.7827C10.3818 30.6392 10.4507 30.4722 10.4946 30.2817C10.5415 30.0913 10.5649 29.8892 10.5649 29.6753V29.5742C10.5649 29.3633 10.5415 29.1641 10.4946 28.9766C10.4507 28.7861 10.3804 28.6177 10.2837 28.4712C10.1899 28.3247 10.0698 28.2104 9.92334 28.1284C9.77979 28.0435 9.6084 28.001 9.40918 28.001C9.20996 28.001 9.03711 28.0435 8.89062 28.1284C8.74707 28.2104 8.62842 28.3247 8.53467 28.4712C8.44092 28.6177 8.37207 28.7861 8.32812 28.9766C8.28418 29.1641 8.26221 29.3633 8.26221 29.5742ZM15.5571 27.2451H16.5195V31.8682C16.5195 32.2959 16.4287 32.6592 16.2471 32.958C16.0654 33.2568 15.812 33.4839 15.4868 33.6392C15.1616 33.7974 14.7852 33.8765 14.3574 33.8765C14.1758 33.8765 13.9736 33.8501 13.751 33.7974C13.5312 33.7446 13.3174 33.6597 13.1094 33.5425C12.9043 33.4282 12.7329 33.2773 12.5952 33.0898L13.0918 32.4658C13.2617 32.668 13.4492 32.8159 13.6543 32.9097C13.8594 33.0034 14.0747 33.0503 14.3003 33.0503C14.5435 33.0503 14.75 33.0049 14.9199 32.9141C15.0928 32.8262 15.2261 32.6958 15.3198 32.5229C15.4136 32.3501 15.4604 32.1392 15.4604 31.8901V28.3218L15.5571 27.2451ZM12.3271 29.6753V29.583C12.3271 29.2227 12.3711 28.8945 12.459 28.5986C12.5469 28.2998 12.6729 28.0435 12.8369 27.8296C13.001 27.6128 13.2002 27.4473 13.4346 27.333C13.6689 27.2158 13.9341 27.1572 14.23 27.1572C14.5376 27.1572 14.7998 27.2129 15.0166 27.3242C15.2363 27.4355 15.4194 27.5952 15.5659 27.8032C15.7124 28.0083 15.8267 28.2544 15.9087 28.5415C15.9937 28.8257 16.0566 29.1421 16.0977 29.4907V29.7852C16.0596 30.125 15.9951 30.4355 15.9043 30.7168C15.8135 30.998 15.6934 31.2412 15.5439 31.4463C15.3945 31.6514 15.21 31.8096 14.9902 31.9209C14.7734 32.0322 14.5171 32.0879 14.2212 32.0879C13.9312 32.0879 13.6689 32.0278 13.4346 31.9077C13.2031 31.7876 13.0039 31.6191 12.8369 31.4023C12.6729 31.1855 12.5469 30.9307 12.459 30.6377C12.3711 30.3418 12.3271 30.021 12.3271 29.6753ZM13.3862 29.583V29.6753C13.3862 29.8921 13.4067 30.0942 13.4478 30.2817C13.4917 30.4692 13.5576 30.6348 13.6455 30.7783C13.7363 30.9189 13.8506 31.0303 13.9883 31.1123C14.1289 31.1914 14.2944 31.231 14.4849 31.231C14.7339 31.231 14.9375 31.1782 15.0957 31.0728C15.2568 30.9673 15.3799 30.8252 15.4648 30.6465C15.5527 30.4648 15.6143 30.2627 15.6494 30.04V29.2446C15.6318 29.0718 15.5952 28.9106 15.5396 28.7612C15.4868 28.6118 15.415 28.4814 15.3242 28.3701C15.2334 28.2559 15.1191 28.168 14.9814 28.1064C14.8438 28.042 14.6812 28.0098 14.4937 28.0098C14.3032 28.0098 14.1377 28.0508 13.9971 28.1328C13.8564 28.2148 13.7407 28.3276 13.6499 28.4712C13.562 28.6147 13.4961 28.7817 13.4521 28.9722C13.4082 29.1626 13.3862 29.3662 13.3862 29.583ZM18.752 27.2451V32H17.6885V27.2451H18.752ZM17.6182 25.9971C17.6182 25.8359 17.6709 25.7026 17.7764 25.5972C17.8848 25.4888 18.0342 25.4346 18.2246 25.4346C18.4121 25.4346 18.5601 25.4888 18.6685 25.5972C18.7769 25.7026 18.8311 25.8359 18.8311 25.9971C18.8311 26.1553 18.7769 26.2871 18.6685 26.3926C18.5601 26.498 18.4121 26.5508 18.2246 26.5508C18.0342 26.5508 17.8848 26.498 17.7764 26.3926C17.6709 26.2871 17.6182 26.1553 17.6182 25.9971ZM20.9624 28.2603V32H19.9033V27.2451H20.9009L20.9624 28.2603ZM20.7734 29.4468L20.4307 29.4424C20.4336 29.1055 20.4805 28.7964 20.5713 28.5151C20.665 28.2339 20.7939 27.9922 20.958 27.79C21.125 27.5879 21.3242 27.4326 21.5557 27.3242C21.7871 27.2129 22.0449 27.1572 22.3291 27.1572C22.5576 27.1572 22.7642 27.1895 22.9487 27.2539C23.1362 27.3154 23.2959 27.4165 23.4277 27.5571C23.5625 27.6978 23.665 27.8809 23.7354 28.1064C23.8057 28.3291 23.8408 28.603 23.8408 28.9282V32H22.7773V28.9238C22.7773 28.6953 22.7437 28.5151 22.6763 28.3833C22.6118 28.2485 22.5166 28.1533 22.3906 28.0977C22.2676 28.0391 22.1138 28.0098 21.9292 28.0098C21.7476 28.0098 21.585 28.0479 21.4414 28.124C21.2979 28.2002 21.1763 28.3042 21.0767 28.436C20.98 28.5679 20.9053 28.7202 20.8525 28.8931C20.7998 29.0659 20.7734 29.2505 20.7734 29.4468Z" fill="black"/>
<path d="M22.275 9.9V3.7125H24.75V11.1375H22.275M22.275 16.0875H24.75V13.6125H22.275M9.9 11.1375C13.2041 11.1375 19.8 12.7957 19.8 16.0875V19.8H0V16.0875C0 12.7957 6.59587 11.1375 9.9 11.1375ZM9.9 0C11.2128 0 12.4719 0.521516 13.4002 1.44982C14.3285 2.37813 14.85 3.63718 14.85 4.95C14.85 6.26282 14.3285 7.52187 13.4002 8.45018C12.4719 9.37848 11.2128 9.9 9.9 9.9C8.58718 9.9 7.32813 9.37848 6.39982 8.45018C5.47152 7.52187 4.95 6.26282 4.95 4.95C4.95 3.63718 5.47152 2.37813 6.39982 1.44982C7.32813 0.521516 8.58718 0 9.9 0ZM9.9 13.4887C6.22463 13.4887 2.35125 15.2955 2.35125 16.0875V17.4488H17.4488V16.0875C17.4488 15.2955 13.5754 13.4887 9.9 13.4887ZM9.9 2.35125C9.21077 2.35125 8.54977 2.62505 8.06241 3.11241C7.57505 3.59977 7.30125 4.26077 7.30125 4.95C7.30125 5.63923 7.57505 6.30023 8.06241 6.78759C8.54977 7.27495 9.21077 7.54875 9.9 7.54875C10.5892 7.54875 11.2502 7.27495 11.7376 6.78759C12.225 6.30023 12.4988 5.63923 12.4988 4.95C12.4988 4.26077 12.225 3.59977 11.7376 3.11241C11.2502 2.62505 10.5892 2.35125 9.9 2.35125Z" fill="#2E0052"/>
</svg>
