<svg width="29" height="34" viewBox="0 0 29 34" fill="none" xmlns="http://www.w3.org/2000/svg">
<path d="M4.6582 31.1255V32H1.4458V31.1255H4.6582ZM1.75342 25.6016V32H0.650391V25.6016H1.75342ZM5.20312 29.6753V29.5742C5.20312 29.2314 5.25293 28.9136 5.35254 28.6206C5.45215 28.3247 5.5957 28.0684 5.7832 27.8516C5.97363 27.6318 6.20508 27.4619 6.47754 27.3418C6.75293 27.2188 7.06348 27.1572 7.40918 27.1572C7.75781 27.1572 8.06836 27.2188 8.34082 27.3418C8.61621 27.4619 8.84912 27.6318 9.03955 27.8516C9.22998 28.0684 9.375 28.3247 9.47461 28.6206C9.57422 28.9136 9.62402 29.2314 9.62402 29.5742V29.6753C9.62402 30.0181 9.57422 30.3359 9.47461 30.6289C9.375 30.9219 9.22998 31.1782 9.03955 31.3979C8.84912 31.6147 8.61768 31.7847 8.34521 31.9077C8.07275 32.0278 7.76367 32.0879 7.41797 32.0879C7.06934 32.0879 6.75732 32.0278 6.48193 31.9077C6.20947 31.7847 5.97803 31.6147 5.7876 31.3979C5.59717 31.1782 5.45215 30.9219 5.35254 30.6289C5.25293 30.3359 5.20312 30.0181 5.20312 29.6753ZM6.26221 29.5742V29.6753C6.26221 29.8892 6.28418 30.0913 6.32812 30.2817C6.37207 30.4722 6.44092 30.6392 6.53467 30.7827C6.62842 30.9263 6.74854 31.0391 6.89502 31.1211C7.0415 31.2031 7.21582 31.2441 7.41797 31.2441C7.61426 31.2441 7.78418 31.2031 7.92773 31.1211C8.07422 31.0391 8.19434 30.9263 8.28809 30.7827C8.38184 30.6392 8.45068 30.4722 8.49463 30.2817C8.5415 30.0913 8.56494 29.8892 8.56494 29.6753V29.5742C8.56494 29.3633 8.5415 29.1641 8.49463 28.9766C8.45068 28.7861 8.38037 28.6177 8.28369 28.4712C8.18994 28.3247 8.06982 28.2104 7.92334 28.1284C7.77979 28.0435 7.6084 28.001 7.40918 28.001C7.20996 28.001 7.03711 28.0435 6.89062 28.1284C6.74707 28.2104 6.62842 28.3247 6.53467 28.4712C6.44092 28.6177 6.37207 28.7861 6.32812 28.9766C6.28418 29.1641 6.26221 29.3633 6.26221 29.5742ZM13.5571 27.2451H14.5195V31.8682C14.5195 32.2959 14.4287 32.6592 14.2471 32.958C14.0654 33.2568 13.812 33.4839 13.4868 33.6392C13.1616 33.7974 12.7852 33.8765 12.3574 33.8765C12.1758 33.8765 11.9736 33.8501 11.751 33.7974C11.5312 33.7446 11.3174 33.6597 11.1094 33.5425C10.9043 33.4282 10.7329 33.2773 10.5952 33.0898L11.0918 32.4658C11.2617 32.668 11.4492 32.8159 11.6543 32.9097C11.8594 33.0034 12.0747 33.0503 12.3003 33.0503C12.5435 33.0503 12.75 33.0049 12.9199 32.9141C13.0928 32.8262 13.2261 32.6958 13.3198 32.5229C13.4136 32.3501 13.4604 32.1392 13.4604 31.8901V28.3218L13.5571 27.2451ZM10.3271 29.6753V29.583C10.3271 29.2227 10.3711 28.8945 10.459 28.5986C10.5469 28.2998 10.6729 28.0435 10.8369 27.8296C11.001 27.6128 11.2002 27.4473 11.4346 27.333C11.6689 27.2158 11.9341 27.1572 12.23 27.1572C12.5376 27.1572 12.7998 27.2129 13.0166 27.3242C13.2363 27.4355 13.4194 27.5952 13.5659 27.8032C13.7124 28.0083 13.8267 28.2544 13.9087 28.5415C13.9937 28.8257 14.0566 29.1421 14.0977 29.4907V29.7852C14.0596 30.125 13.9951 30.4355 13.9043 30.7168C13.8135 30.998 13.6934 31.2412 13.5439 31.4463C13.3945 31.6514 13.21 31.8096 12.9902 31.9209C12.7734 32.0322 12.5171 32.0879 12.2212 32.0879C11.9312 32.0879 11.6689 32.0278 11.4346 31.9077C11.2031 31.7876 11.0039 31.6191 10.8369 31.4023C10.6729 31.1855 10.5469 30.9307 10.459 30.6377C10.3711 30.3418 10.3271 30.021 10.3271 29.6753ZM11.3862 29.583V29.6753C11.3862 29.8921 11.4067 30.0942 11.4478 30.2817C11.4917 30.4692 11.5576 30.6348 11.6455 30.7783C11.7363 30.9189 11.8506 31.0303 11.9883 31.1123C12.1289 31.1914 12.2944 31.231 12.4849 31.231C12.7339 31.231 12.9375 31.1782 13.0957 31.0728C13.2568 30.9673 13.3799 30.8252 13.4648 30.6465C13.5527 30.4648 13.6143 30.2627 13.6494 30.04V29.2446C13.6318 29.0718 13.5952 28.9106 13.5396 28.7612C13.4868 28.6118 13.415 28.4814 13.3242 28.3701C13.2334 28.2559 13.1191 28.168 12.9814 28.1064C12.8438 28.042 12.6812 28.0098 12.4937 28.0098C12.3032 28.0098 12.1377 28.0508 11.9971 28.1328C11.8564 28.2148 11.7407 28.3276 11.6499 28.4712C11.562 28.6147 11.4961 28.7817 11.4521 28.9722C11.4082 29.1626 11.3862 29.3662 11.3862 29.583ZM15.416 29.6753V29.5742C15.416 29.2314 15.4658 28.9136 15.5654 28.6206C15.665 28.3247 15.8086 28.0684 15.9961 27.8516C16.1865 27.6318 16.418 27.4619 16.6904 27.3418C16.9658 27.2188 17.2764 27.1572 17.6221 27.1572C17.9707 27.1572 18.2812 27.2188 18.5537 27.3418C18.8291 27.4619 19.062 27.6318 19.2524 27.8516C19.4429 28.0684 19.5879 28.3247 19.6875 28.6206C19.7871 28.9136 19.8369 29.2314 19.8369 29.5742V29.6753C19.8369 30.0181 19.7871 30.3359 19.6875 30.6289C19.5879 30.9219 19.4429 31.1782 19.2524 31.3979C19.062 31.6147 18.8306 31.7847 18.5581 31.9077C18.2856 32.0278 17.9766 32.0879 17.6309 32.0879C17.2822 32.0879 16.9702 32.0278 16.6948 31.9077C16.4224 31.7847 16.1909 31.6147 16.0005 31.3979C15.8101 31.1782 15.665 30.9219 15.5654 30.6289C15.4658 30.3359 15.416 30.0181 15.416 29.6753ZM16.4751 29.5742V29.6753C16.4751 29.8892 16.4971 30.0913 16.541 30.2817C16.585 30.4722 16.6538 30.6392 16.7476 30.7827C16.8413 30.9263 16.9614 31.0391 17.1079 31.1211C17.2544 31.2031 17.4287 31.2441 17.6309 31.2441C17.8271 31.2441 17.9971 31.2031 18.1406 31.1211C18.2871 31.0391 18.4072 30.9263 18.501 30.7827C18.5947 30.6392 18.6636 30.4722 18.7075 30.2817C18.7544 30.0913 18.7778 29.8892 18.7778 29.6753V29.5742C18.7778 29.3633 18.7544 29.1641 18.7075 28.9766C18.6636 28.7861 18.5933 28.6177 18.4966 28.4712C18.4028 28.3247 18.2827 28.2104 18.1362 28.1284C17.9927 28.0435 17.8213 28.001 17.6221 28.001C17.4229 28.001 17.25 28.0435 17.1035 28.1284C16.96 28.2104 16.8413 28.3247 16.7476 28.4712C16.6538 28.6177 16.585 28.7861 16.541 28.9766C16.4971 29.1641 16.4751 29.3633 16.4751 29.5742ZM23.5854 30.8794V27.2451H24.6489V32H23.647L23.5854 30.8794ZM23.7349 29.8906L24.0908 29.8818C24.0908 30.2012 24.0557 30.4956 23.9854 30.7651C23.915 31.0317 23.8066 31.2646 23.6602 31.4639C23.5137 31.6602 23.3262 31.814 23.0977 31.9253C22.8691 32.0337 22.5952 32.0879 22.2759 32.0879C22.0444 32.0879 21.832 32.0542 21.6387 31.9868C21.4453 31.9194 21.2783 31.8154 21.1377 31.6748C21 31.5342 20.8931 31.3511 20.8169 31.1255C20.7407 30.8999 20.7026 30.6304 20.7026 30.3169V27.2451H21.7617V30.3257C21.7617 30.4985 21.7822 30.6436 21.8232 30.7607C21.8643 30.875 21.9199 30.9673 21.9902 31.0376C22.0605 31.1079 22.1426 31.1577 22.2363 31.187C22.3301 31.2163 22.4297 31.231 22.5352 31.231C22.8369 31.231 23.0742 31.1724 23.2471 31.0552C23.4229 30.9351 23.5474 30.7739 23.6206 30.5718C23.6968 30.3696 23.7349 30.1426 23.7349 29.8906ZM27.9141 27.2451V28.0186H25.2334V27.2451H27.9141ZM26.0068 26.0806H27.0659V30.686C27.0659 30.8325 27.0864 30.9453 27.1274 31.0244C27.1714 31.1006 27.2314 31.1519 27.3076 31.1782C27.3838 31.2046 27.4731 31.2178 27.5757 31.2178C27.6489 31.2178 27.7192 31.2134 27.7866 31.2046C27.854 31.1958 27.9082 31.187 27.9492 31.1782L27.9536 31.9868C27.8657 32.0132 27.7632 32.0366 27.646 32.0571C27.5317 32.0776 27.3999 32.0879 27.2505 32.0879C27.0073 32.0879 26.792 32.0454 26.6045 31.9604C26.417 31.8726 26.2705 31.7305 26.165 31.5342C26.0596 31.3379 26.0068 31.0771 26.0068 30.752V26.0806Z" fill="black"/>
<path d="M12.9 11.1375C16.2041 11.1375 22.8 12.7957 22.8 16.0875V19.8H3V16.0875C3 12.7957 9.59587 11.1375 12.9 11.1375ZM12.9 0C14.2128 0 15.4719 0.521516 16.4002 1.44982C17.3285 2.37813 17.85 3.63718 17.85 4.95C17.85 6.26282 17.3285 7.52187 16.4002 8.45018C15.4719 9.37848 14.2128 9.9 12.9 9.9C11.5872 9.9 10.3281 9.37848 9.39982 8.45018C8.47152 7.52187 7.95 6.26282 7.95 4.95C7.95 3.63718 8.47152 2.37813 9.39982 1.44982C10.3281 0.521516 11.5872 0 12.9 0ZM12.9 13.4887C9.22462 13.4887 5.35125 15.2955 5.35125 16.0875V17.4488H20.4488V16.0875C20.4488 15.2955 16.5754 13.4887 12.9 13.4887ZM12.9 2.35125C12.2108 2.35125 11.5498 2.62505 11.0624 3.11241C10.575 3.59977 10.3012 4.26077 10.3012 4.95C10.3012 5.63923 10.575 6.30023 11.0624 6.78759C11.5498 7.27495 12.2108 7.54875 12.9 7.54875C13.5892 7.54875 14.2502 7.27495 14.7376 6.78759C15.225 6.30023 15.4988 5.63923 15.4988 4.95C15.4988 4.26077 15.225 3.59977 14.7376 3.11241C14.2502 2.62505 13.5892 2.35125 12.9 2.35125Z" fill="#2E0052"/>
</svg>
